# xmcd CD database file
#
# Track frame offsets:
#	150
#	24080
#	55872
#	84128
#	112309
#	136596
#	160089
#
# Disc length: 2476 seconds
#
# Revision: 0
# Processed by: cddbd v1.5.2PL0 Copyright (c) Steve Scherf et al.
# Submitted via: CDex 1.70beta2
#
DISCID=4709aa07
DTITLE=Jazzodrom - Tribute To Cannonball
DYEAR=1900
DGENRE=Jazz
TTITLE0=sticks
TTITLE1=groovy samba
TTITLE2=dat dare
TTITLE3=spring blossom
TTITLE4=helene
TTITLE5=valentina
TTITLE6=work song
EXTD=
EXTT0=
EXTT1=
EXTT2=
EXTT3=
EXTT4=
EXTT5=
EXTT6=
PLAYORDER=
